<svg width="651" height="545" viewBox="0 0 651 545" fill="none" xmlns="http://www.w3.org/2000/svg">
<path d="M145.997 1.92531C159.95 3.46681 192.161 16.3824 201.308 27.5479C210.56 22.7929 223.014 18.2464 232.906 14.9549C290.956 -4.42264 353.64 -4.98264 412.03 13.3539C424.7 17.5039 437.125 22.3874 449.23 27.9804C458.54 15.9684 487.345 3.99934 502.515 2.13434C515.295 0.532336 528.19 4.03936 538.4 11.8924C565.445 33.0839 577.685 98.2109 581.85 131.008C582.33 134.775 583.845 143.164 581.095 145.711C585.91 152.824 591.815 164.775 595.385 172.634C613.36 211.263 621.265 253.815 618.365 296.323C641.425 295.396 655.48 316.942 648.755 337.583C646.235 345.553 640.645 352.193 633.215 356.028C640.83 374.853 638.095 389.683 622.405 402.888C645.675 422.038 631.635 460.463 602.54 461.813C589.05 462.443 582.605 455.208 571.295 450.343L570.62 450.053C566.755 455.998 557.645 464.608 552.425 469.483C523.265 496.703 489.57 512.313 452.395 525.688C450.364 524.655 454.987 526.775 452.395 525.688L399.364 533C387.459 534.505 347.075 544.748 335.08 544.868C264.3 545.573 189.771 532.078 129.124 493.958C109.508 481.628 93.7556 467.248 78.7306 449.733C70.1211 453.278 63.6836 460.153 53.8006 461.368C30.1921 464.273 12.2336 444.443 16.7496 421.163C18.4106 412.603 22.1541 408.733 27.4441 402.268C13.3026 388.483 10.0641 374.293 18.6616 356.308C-1.4984 348.248 -5.5804 321.047 7.6651 305.102C14.5106 296.861 23.2401 295.799 33.2361 295.031C33.1791 284.787 32.5941 275.153 33.2586 264.836C36.3871 216.231 49.5126 178.47 74.7121 137.407C68.0856 136.229 68.2216 127.603 69.1766 122.337C76.5141 81.8723 89.0976 -4.35969 145.997 1.92531Z" fill="#471C16"/>
<path d="M7.6651 305.102C-5.5804 321.047 -1.4984 348.248 18.6616 356.308C10.0641 374.293 13.3026 388.483 27.4441 402.268C22.1541 408.733 18.4106 412.603 16.7496 421.163C12.2336 444.443 30.1921 464.273 53.8006 461.368C63.6836 460.153 70.1211 453.278 78.7306 449.733C93.7556 467.248 109.508 481.628 129.124 493.958C189.771 532.078 264.3 545.573 335.08 544.868C391.864 544.302 432.864 532.031 452.395 525.688C489.971 513.485 523.265 496.703 552.425 469.483C557.645 464.608 566.755 455.998 570.62 450.053L571.295 450.343C582.605 455.208 589.05 462.443 602.54 461.813C631.635 460.463 645.675 422.038 622.405 402.888C638.095 389.683 640.83 374.853 633.215 356.028C640.645 352.193 646.235 345.553 648.755 337.583C655.48 316.942 641.425 295.396 618.365 296.323C617.94 302.192 617.215 310.113 615.835 315.83C619.415 316.264 622.78 316.445 625.495 319.02C631.94 324.157 628.48 335.658 620.35 336.313C609.89 337.158 597.85 336.593 587.25 336.798C586.655 343.853 586.16 349.448 585.02 356.423C593.355 359.218 611.45 362.688 614.86 370.753C617.765 377.623 611.72 382.528 605.86 384.403C599.665 383.048 588.305 378.318 580.585 376.168C578.935 382.833 575.45 391.613 572.715 397.883C581.695 401.693 605.78 416.073 611.25 425.218C614.955 431.413 604.9 441.298 599.48 438.208C587.77 431.528 575.305 421.088 562.66 415.898C497.36 516.753 344.5 531.498 236.68 509.008C177.198 496.603 121.252 467.843 87.8046 415.468C78.0271 420.413 67.7346 427.413 58.6996 433.613C52.1301 438.123 45.0036 442.083 39.6601 432.803C38.5111 430.818 38.2171 428.448 38.8446 426.243C41.4616 417.103 68.5961 402.493 77.4441 397.668C74.3481 390.713 72.1351 383.658 69.8986 376.403C64.3946 377.808 45.3671 386.058 41.6521 382.898C22.3941 366.548 54.6826 359.848 65.4151 356.803C64.2351 351.008 63.4726 342.843 63.2276 336.888C57.0481 336.723 50.8671 336.628 44.6856 336.593C37.6901 336.583 22.6391 338.268 21.7376 327.928C20.8946 318.252 27.7996 316.309 35.8571 315.762C34.7416 309.725 33.9761 301.297 33.2361 295.031C23.2401 295.799 14.5106 296.861 7.6651 305.102Z" fill="#FEFEFE" fill-opacity="0.56"/>
<path d="M201.308 27.5479C210.56 22.7929 223.014 18.2464 232.906 14.9549C290.956 -4.42264 353.64 -4.98264 412.03 13.3539C424.7 17.5039 437.125 22.3874 449.23 27.9804C455.725 30.9754 465.13 35.9484 470.74 40.2694C468.065 42.6169 464.145 45.0674 461.2 47.2569C436.54 65.6079 416.025 87.9609 396.535 111.549C350.89 100.83 298.315 99.8548 252.787 111.686C234.312 87.9633 213.85 65.6549 189.534 47.7929C185.979 45.1819 182.296 42.8579 178.809 40.1309C183.633 35.8664 195.196 30.4624 201.308 27.5479Z" fill="#F19B37"/>
<path d="M92.3512 135.455C90.1217 160.834 89.8397 195.1 93.7632 220.296C76.6727 250.317 66.2027 281.756 63.6232 316.311C54.2982 315.632 45.1837 315.899 35.8572 315.762C34.7417 309.725 33.9762 301.297 33.2362 295.031C33.1792 284.787 32.5942 275.153 33.2587 264.836C36.3872 216.231 49.5127 178.47 74.7122 137.407C75.5512 137.655 80.8702 140.034 82.2232 140.588C85.8807 138.554 88.5362 137.126 92.3512 135.455Z" fill="#F19B37"/>
<path d="M581.095 145.711C585.91 152.824 591.815 164.775 595.385 172.634C613.36 211.263 621.265 253.815 618.365 296.323C617.94 302.192 617.215 310.113 615.835 315.83C606.125 315.757 596.415 315.841 586.705 316.083C583.165 279.192 574.86 252.525 556.58 220.475C559.8 195.564 560.325 177.815 559.245 152.714C567.635 153.802 575.19 152.142 581.095 145.711Z" fill="#F19B37"/>
<path d="M449.23 27.9804C458.54 15.9684 487.345 3.99938 502.515 2.13438C515.295 0.53238 528.19 4.03937 538.4 11.8924C565.445 33.0839 577.685 98.2109 581.85 131.008C582.33 134.775 583.845 143.164 581.095 145.711C575.19 152.142 567.635 153.802 559.245 152.714C557.685 144.463 557.69 133.755 556.335 125.034C552.055 97.3824 546.515 67.9054 533.46 42.8684C518.12 13.4494 491.75 27.9474 470.74 40.2694C465.13 35.9484 455.725 30.9754 449.23 27.9804Z" fill="#FEFEFE"/>
<path d="M74.7126 137.407C68.0861 136.229 68.2221 127.603 69.1771 122.337C76.5146 81.8725 89.0981 -4.35953 145.998 1.92547C159.95 3.46697 192.161 16.3825 201.309 27.548C195.196 30.4625 183.633 35.8665 178.81 40.131C142.839 18.868 123.894 16.4585 108.577 60.9165C99.6771 86.7465 95.9316 108.459 92.3516 135.455C88.5366 137.126 85.8811 138.554 82.2236 140.588C80.8706 140.034 75.5516 137.655 74.7126 137.407Z" fill="#FEFEFE"/>
<path d="M116.479 223.624C115.342 212.353 113.707 200.398 113.337 188.967C112.046 146.029 116.781 101.874 131.589 61.3538C137.791 44.3813 142.038 44.8688 157.019 53.0478C176.324 63.5873 192.728 78.3908 208.085 93.9798C214.407 100.105 219.873 106.806 225.62 113.409C232.302 121.084 237.776 131.487 247.111 135.766C249.694 135.357 252.682 134.748 255.217 134.089C276.984 128.428 298.492 126.611 320.87 125.842C345.485 125.873 369.27 127.824 393.13 134.005C395.6 134.645 398.52 135.366 401.03 135.797C403.005 135.032 406.175 133.938 407.675 132.496C412.775 127.593 416.775 121.555 421.435 116.221C442.455 92.1544 465.4 68.5183 493.485 52.7268C497.565 50.4338 504.715 46.4643 509.52 48.1538C514.55 50.2778 517.97 59.6258 519.685 64.5868C534.87 108.61 540.13 158.213 536.165 204.565C535.795 208.908 534.66 219.295 533.745 223.349C550.745 254.999 562.895 281.46 564.53 318.534C550.175 320.198 495.27 330.239 486.815 340.488C484.78 342.948 484.65 345.638 485.09 348.688C485.48 351.363 487.175 353.248 489.305 354.813C491.54 356.458 493.205 356.388 495.865 355.908C504.485 354.348 513.26 350.188 521.775 347.758C535.855 343.738 550.255 341.293 564.7 339.048C563.98 346.868 562.825 354.643 561.25 362.333C559.38 370.723 555.99 379.823 552.585 387.688C541.32 383.358 499.62 367.278 490 370.113C487.585 370.823 485.39 372.928 484.225 375.108C483.015 377.368 482.84 380.383 483.65 382.803C484.415 385.088 486.14 386.933 488.285 387.998C493.645 390.658 501.035 391.738 506.86 393.353C518.775 396.658 531.48 400.688 542.56 406.203C533.58 420.098 519.99 434.308 506.735 444.353C442.585 492.953 347.525 502.243 270.152 492.293C217.334 485.503 163.86 467.258 125.788 428.718C117.703 420.533 113.835 414.908 107.036 406.043C121.797 399.568 137.821 394.923 153.515 390.633C160.719 388.663 171.673 386.248 166.652 375.408C164.943 371.718 162.304 370.363 158.553 369.098C138.731 372.853 116.05 380.188 97.4981 387.828C90.8121 372.568 86.7741 356.283 85.5566 339.673C99.8436 341.608 114.243 344.013 128.135 347.938C136.488 350.298 144.949 354.038 153.388 355.783C155.992 356.318 157.989 355.998 160.208 354.503C162.584 352.903 164.221 350.923 164.706 348.053C165.145 345.453 164.734 342.703 163.16 340.538C156.077 330.793 99.7866 320.852 85.7386 318.689C86.0176 296.797 95.6407 264.886 105.326 245.237C108.906 237.973 113.192 230.832 116.479 223.624Z" fill="#FEFEFE"/>
<path d="M401.03 135.797C403.005 135.032 406.175 133.938 407.675 132.496C412.775 127.593 416.775 121.555 421.435 116.221C442.455 92.1542 465.4 68.5182 493.485 52.7267C497.565 50.4337 504.715 46.4642 509.52 48.1537C514.55 50.2777 517.97 59.6257 519.685 64.5867C534.87 108.61 540.13 158.213 536.165 204.565C535.795 208.908 534.66 219.295 533.745 223.349C550.745 254.999 562.895 281.46 564.53 318.534C550.175 320.198 495.27 330.239 486.815 340.488C484.78 342.948 484.65 345.638 485.09 348.688C485.48 351.363 487.175 353.248 489.305 354.813C491.54 356.458 493.205 356.388 495.865 355.908C504.485 354.348 513.26 350.188 521.775 347.758C535.855 343.738 550.255 341.293 564.7 339.048C563.98 346.868 562.825 354.643 561.25 362.333C552.455 360.463 538.845 358.188 529.97 357.983C503.355 357.358 474.725 359.788 449.4 349.783C441.81 346.788 437.82 343.173 431.505 339.293L430.765 338.843C416.045 341.918 400.935 335.713 392.625 323.178C384.315 310.644 384.485 294.311 393.05 281.95C379.7 270.174 367.64 266.246 354.055 252.047C317.88 214.238 320.765 173.164 320.87 125.842C345.485 125.873 369.27 127.824 393.13 134.005C395.6 134.645 398.52 135.366 401.03 135.797Z" fill="#F19B37"/>
<path d="M393.05 281.95C402.45 268.379 419.75 262.746 435.34 268.179C450.935 273.612 460.985 288.775 459.92 305.251C458.85 321.726 446.925 335.468 430.765 338.843C416.045 341.918 400.935 335.713 392.625 323.178C384.315 310.644 384.485 294.311 393.05 281.95Z" fill="#471C16"/>
<path d="M495.555 79.7473C501.405 79.7843 504.29 82.6688 505.755 88.3563C512.865 115.925 514.88 145.272 515.325 173.666C515.395 177.958 515.725 186.465 513.9 190.113C510.26 190.628 501.705 182.566 498.77 180.166C492.995 175.354 487.01 170.804 480.83 166.528C472.71 161.131 464.4 156.029 455.915 151.234C449.025 147.359 442.285 144.252 435.775 139.71C445.49 125.305 479.855 85.9268 495.555 79.7473Z" fill="#F8B48A"/>
<path d="M319.025 320.477C328.3 318.972 346.83 320.658 352.565 329.251C354.5 332.123 355.14 335.678 354.32 339.043C352.26 347.778 342.325 353.633 335.27 358.018C336.705 366.093 340.91 373.418 347.16 378.733C355.07 385.358 366.415 387.228 373.845 379.163C378.095 374.548 377.605 366.633 386.315 366.193C388.975 366.043 391.575 366.988 393.515 368.813C395.445 370.623 396.525 373.168 396.48 375.818C396.005 397.453 366.345 410.883 348.07 402.758C338.87 398.668 336.275 396.993 329.395 389.558L324.925 383.933C321.65 389.243 317.65 393.838 312.585 397.508C304.19 403.678 293.68 406.243 283.386 404.633C273.639 403.093 264.936 397.658 259.275 389.573C256.303 385.383 253.096 379.233 254.201 374.018C255.265 368.813 260.921 364.883 266.155 366.363C268.106 366.843 270.248 368.303 271.349 369.958C273.522 373.033 274.969 377.963 277.902 380.383C289.065 389.608 301.944 382.433 308.967 372.123C312.71 366.628 313.685 363.913 315.04 357.703C313.23 356.553 311.434 355.388 309.646 354.203C302.357 349.373 291.137 339.543 297.894 329.363C302.042 323.114 311.945 321.484 319.025 320.477Z" fill="#471C16"/>
<path d="M152.472 79.3364C168.249 81.0794 204.297 126.976 212.781 141.067C208.957 144.076 202.716 147.478 198.425 150.101C189.61 155.49 180.374 160.842 172.035 166.932C165.522 171.222 159.305 176.177 153.093 180.869C150.464 182.855 140.994 191.764 138.295 191.766C137.53 191.253 137.291 190.925 136.927 190.047C135.116 185.676 135.757 178.63 135.737 173.925C135.652 153.978 138.024 101.549 145.998 84.6619C147.57 81.3319 149.028 80.5144 152.472 79.3364Z" fill="#F8B48A"/>
<path d="M215.131 273.506C227.611 272.276 240.077 275.975 249.865 283.814C259.762 291.746 265.817 301.847 267.186 314.473C264.746 320.005 259.916 324.814 253.257 323.386C247.171 322.081 244.873 312.453 241.739 307.637C237.463 301.064 231.836 298.156 224.424 296.415C219.972 295.726 216.168 295.705 212.069 296.782C200.368 299.859 195.965 308.586 191.397 318.595C188.133 324.73 180.135 324.649 175.437 320.898C166.674 313.901 175.945 298.126 181.232 291.437C189.815 280.577 201.558 274.865 215.131 273.506Z" fill="#471C16"/>
</svg>
